<svg width="167" height="13" viewBox="0 0 167 13" fill="none" xmlns="http://www.w3.org/2000/svg">
<path d="M2.44531 0.625L5.08594 6.05469L7.72656 0.625H9.89844L6.07031 7.8125V12H4.09375V7.8125L0.265625 0.625H2.44531ZM19.9766 6V6.625C19.9766 7.48438 19.8646 8.25521 19.6406 8.9375C19.4167 9.61979 19.0964 10.2005 18.6797 10.6797C18.2682 11.1589 17.7734 11.526 17.1953 11.7812C16.6172 12.0312 15.9766 12.1562 15.2734 12.1562C14.5755 12.1562 13.9375 12.0312 13.3594 11.7812C12.7865 11.526 12.2891 11.1589 11.8672 10.6797C11.4453 10.2005 11.1172 9.61979 10.8828 8.9375C10.6536 8.25521 10.5391 7.48438 10.5391 6.625V6C10.5391 5.14062 10.6536 4.3724 10.8828 3.69531C11.112 3.01302 11.4349 2.43229 11.8516 1.95312C12.2734 1.46875 12.7708 1.10156 13.3438 0.851562C13.9219 0.596354 14.5599 0.46875 15.2578 0.46875C15.9609 0.46875 16.6016 0.596354 17.1797 0.851562C17.7578 1.10156 18.2552 1.46875 18.6719 1.95312C19.0885 2.43229 19.4089 3.01302 19.6328 3.69531C19.862 4.3724 19.9766 5.14062 19.9766 6ZM18.0156 6.625V5.98438C18.0156 5.34896 17.9531 4.78906 17.8281 4.30469C17.7083 3.8151 17.5286 3.40625 17.2891 3.07812C17.0547 2.74479 16.7656 2.49479 16.4219 2.32812C16.0781 2.15625 15.6901 2.07031 15.2578 2.07031C14.8255 2.07031 14.4401 2.15625 14.1016 2.32812C13.763 2.49479 13.474 2.74479 13.2344 3.07812C13 3.40625 12.8203 3.8151 12.6953 4.30469C12.5703 4.78906 12.5078 5.34896 12.5078 5.98438V6.625C12.5078 7.26042 12.5703 7.82292 12.6953 8.3125C12.8203 8.80208 13.0026 9.21615 13.2422 9.55469C13.487 9.88802 13.7786 10.1406 14.1172 10.3125C14.4557 10.4792 14.8411 10.5625 15.2734 10.5625C15.7109 10.5625 16.099 10.4792 16.4375 10.3125C16.776 10.1406 17.0625 9.88802 17.2969 9.55469C17.5312 9.21615 17.7083 8.80208 17.8281 8.3125C17.9531 7.82292 18.0156 7.26042 18.0156 6.625ZM28.3203 0.625H30.2734V8.22656C30.2734 9.09115 30.0859 9.8151 29.7109 10.3984C29.3359 10.9818 28.8255 11.4219 28.1797 11.7188C27.5391 12.0104 26.8229 12.1562 26.0312 12.1562C25.2135 12.1562 24.4844 12.0104 23.8438 11.7188C23.2031 11.4219 22.6979 10.9818 22.3281 10.3984C21.9635 9.8151 21.7812 9.09115 21.7812 8.22656V0.625H23.7344V8.22656C23.7344 8.77344 23.8281 9.22396 24.0156 9.57812C24.2031 9.92708 24.4688 10.1849 24.8125 10.3516C25.1562 10.5182 25.5625 10.6016 26.0312 10.6016C26.5 10.6016 26.9036 10.5182 27.2422 10.3516C27.5859 10.1849 27.8516 9.92708 28.0391 9.57812C28.2266 9.22396 28.3203 8.77344 28.3203 8.22656V0.625ZM32.4062 0.625H36.4297C37.2943 0.625 38.0312 0.755208 38.6406 1.01562C39.25 1.27604 39.7161 1.66146 40.0391 2.17188C40.3672 2.67708 40.5312 3.30208 40.5312 4.04688C40.5312 4.61458 40.4271 5.11458 40.2188 5.54688C40.0104 5.97917 39.7161 6.34375 39.3359 6.64062C38.9557 6.93229 38.5026 7.15885 37.9766 7.32031L37.3828 7.60938H33.7656L33.75 6.05469H36.4609C36.9297 6.05469 37.3203 5.97135 37.6328 5.80469C37.9453 5.63802 38.1797 5.41146 38.3359 5.125C38.4974 4.83333 38.5781 4.50521 38.5781 4.14062C38.5781 3.74479 38.5 3.40104 38.3438 3.10938C38.1927 2.8125 37.9583 2.58594 37.6406 2.42969C37.3229 2.26823 36.9193 2.1875 36.4297 2.1875H34.3672V12H32.4062V0.625ZM38.8984 12L36.2266 6.89062L38.2812 6.88281L40.9922 11.8984V12H38.8984ZM48.4297 0.625V12H46.4688V0.625H48.4297ZM53.0703 5.60156V7.15625H47.9297V5.60156H53.0703ZM53.7188 0.625V2.1875H47.9297V0.625H53.7188ZM58.3203 2.14062L54.9219 12H52.8672L57.1484 0.625H58.4609L58.3203 2.14062ZM61.1641 12L57.7578 2.14062L57.6094 0.625H58.9297L63.2266 12H61.1641ZM61 7.78125V9.33594H54.8125V7.78125H61ZM67.7422 9.92188L70.7344 0.625H72.8984L68.8203 12H67.3594L67.7422 9.92188ZM64.9766 0.625L67.9453 9.92188L68.3516 12H66.8828L62.8203 0.625H64.9766ZM83.1328 6V6.625C83.1328 7.48438 83.0208 8.25521 82.7969 8.9375C82.5729 9.61979 82.2526 10.2005 81.8359 10.6797C81.4245 11.1589 80.9297 11.526 80.3516 11.7812C79.7734 12.0312 79.1328 12.1562 78.4297 12.1562C77.7318 12.1562 77.0938 12.0312 76.5156 11.7812C75.9427 11.526 75.4453 11.1589 75.0234 10.6797C74.6016 10.2005 74.2734 9.61979 74.0391 8.9375C73.8099 8.25521 73.6953 7.48438 73.6953 6.625V6C73.6953 5.14062 73.8099 4.3724 74.0391 3.69531C74.2682 3.01302 74.5911 2.43229 75.0078 1.95312C75.4297 1.46875 75.9271 1.10156 76.5 0.851562C77.0781 0.596354 77.7161 0.46875 78.4141 0.46875C79.1172 0.46875 79.7578 0.596354 80.3359 0.851562C80.9141 1.10156 81.4115 1.46875 81.8281 1.95312C82.2448 2.43229 82.5651 3.01302 82.7891 3.69531C83.0182 4.3724 83.1328 5.14062 83.1328 6ZM81.1719 6.625V5.98438C81.1719 5.34896 81.1094 4.78906 80.9844 4.30469C80.8646 3.8151 80.6849 3.40625 80.4453 3.07812C80.2109 2.74479 79.9219 2.49479 79.5781 2.32812C79.2344 2.15625 78.8464 2.07031 78.4141 2.07031C77.9818 2.07031 77.5964 2.15625 77.2578 2.32812C76.9193 2.49479 76.6302 2.74479 76.3906 3.07812C76.1562 3.40625 75.9766 3.8151 75.8516 4.30469C75.7266 4.78906 75.6641 5.34896 75.6641 5.98438V6.625C75.6641 7.26042 75.7266 7.82292 75.8516 8.3125C75.9766 8.80208 76.1589 9.21615 76.3984 9.55469C76.6432 9.88802 76.9349 10.1406 77.2734 10.3125C77.612 10.4792 77.9974 10.5625 78.4297 10.5625C78.8672 10.5625 79.2552 10.4792 79.5938 10.3125C79.9323 10.1406 80.2188 9.88802 80.4531 9.55469C80.6875 9.21615 80.8646 8.80208 80.9844 8.3125C81.1094 7.82292 81.1719 7.26042 81.1719 6.625ZM85.0938 0.625H89.1172C89.9818 0.625 90.7188 0.755208 91.3281 1.01562C91.9375 1.27604 92.4036 1.66146 92.7266 2.17188C93.0547 2.67708 93.2188 3.30208 93.2188 4.04688C93.2188 4.61458 93.1146 5.11458 92.9062 5.54688C92.6979 5.97917 92.4036 6.34375 92.0234 6.64062C91.6432 6.93229 91.1901 7.15885 90.6641 7.32031L90.0703 7.60938H86.4531L86.4375 6.05469H89.1484C89.6172 6.05469 90.0078 5.97135 90.3203 5.80469C90.6328 5.63802 90.8672 5.41146 91.0234 5.125C91.1849 4.83333 91.2656 4.50521 91.2656 4.14062C91.2656 3.74479 91.1875 3.40104 91.0312 3.10938C90.8802 2.8125 90.6458 2.58594 90.3281 2.42969C90.0104 2.26823 89.6068 2.1875 89.1172 2.1875H87.0547V12H85.0938V0.625ZM91.5859 12L88.9141 6.89062L90.9688 6.88281L93.6797 11.8984V12H91.5859ZM97.2656 0.625V12H95.3047V0.625H97.2656ZM104.148 0.625V12H102.203V0.625H104.148ZM107.719 0.625V2.1875H98.6641V0.625H107.719ZM116.664 10.4453V12H110.625V10.4453H116.664ZM111.18 0.625V12H109.219V0.625H111.18ZM115.875 5.375V6.90625H110.625V5.375H115.875ZM116.625 0.625V2.1875H110.625V0.625H116.625ZM122.25 0.625H126.273C127.138 0.625 127.875 0.755208 128.484 1.01562C129.094 1.27604 129.56 1.66146 129.883 2.17188C130.211 2.67708 130.375 3.30208 130.375 4.04688C130.375 4.61458 130.271 5.11458 130.062 5.54688C129.854 5.97917 129.56 6.34375 129.18 6.64062C128.799 6.93229 128.346 7.15885 127.82 7.32031L127.227 7.60938H123.609L123.594 6.05469H126.305C126.773 6.05469 127.164 5.97135 127.477 5.80469C127.789 5.63802 128.023 5.41146 128.18 5.125C128.341 4.83333 128.422 4.50521 128.422 4.14062C128.422 3.74479 128.344 3.40104 128.188 3.10938C128.036 2.8125 127.802 2.58594 127.484 2.42969C127.167 2.26823 126.763 2.1875 126.273 2.1875H124.211V12H122.25V0.625ZM128.742 12L126.07 6.89062L128.125 6.88281L130.836 11.8984V12H128.742ZM136.758 2.14062L133.359 12H131.305L135.586 0.625H136.898L136.758 2.14062ZM139.602 12L136.195 2.14062L136.047 0.625H137.367L141.664 12H139.602ZM139.438 7.78125V9.33594H133.25V7.78125H139.438ZM146.242 12H143.812L143.828 10.4453H146.242C146.945 10.4453 147.534 10.2917 148.008 9.98438C148.487 9.67708 148.846 9.23698 149.086 8.66406C149.331 8.09115 149.453 7.40885 149.453 6.61719V6C149.453 5.38542 149.383 4.84115 149.242 4.36719C149.107 3.89323 148.904 3.49479 148.633 3.17188C148.367 2.84896 148.039 2.60417 147.648 2.4375C147.263 2.27083 146.818 2.1875 146.312 2.1875H143.766V0.625H146.312C147.068 0.625 147.758 0.752604 148.383 1.00781C149.008 1.25781 149.547 1.61979 150 2.09375C150.458 2.56771 150.81 3.13542 151.055 3.79688C151.299 4.45833 151.422 5.19792 151.422 6.01562V6.61719C151.422 7.4349 151.299 8.17448 151.055 8.83594C150.81 9.4974 150.458 10.0651 150 10.5391C149.542 11.0078 148.995 11.3698 148.359 11.625C147.729 11.875 147.023 12 146.242 12ZM144.898 0.625V12H142.938V0.625H144.898ZM155.484 0.625V12H153.523V0.625H155.484ZM166.992 6V6.625C166.992 7.48438 166.88 8.25521 166.656 8.9375C166.432 9.61979 166.112 10.2005 165.695 10.6797C165.284 11.1589 164.789 11.526 164.211 11.7812C163.633 12.0312 162.992 12.1562 162.289 12.1562C161.591 12.1562 160.953 12.0312 160.375 11.7812C159.802 11.526 159.305 11.1589 158.883 10.6797C158.461 10.2005 158.133 9.61979 157.898 8.9375C157.669 8.25521 157.555 7.48438 157.555 6.625V6C157.555 5.14062 157.669 4.3724 157.898 3.69531C158.128 3.01302 158.451 2.43229 158.867 1.95312C159.289 1.46875 159.786 1.10156 160.359 0.851562C160.938 0.596354 161.576 0.46875 162.273 0.46875C162.977 0.46875 163.617 0.596354 164.195 0.851562C164.773 1.10156 165.271 1.46875 165.688 1.95312C166.104 2.43229 166.424 3.01302 166.648 3.69531C166.878 4.3724 166.992 5.14062 166.992 6ZM165.031 6.625V5.98438C165.031 5.34896 164.969 4.78906 164.844 4.30469C164.724 3.8151 164.544 3.40625 164.305 3.07812C164.07 2.74479 163.781 2.49479 163.438 2.32812C163.094 2.15625 162.706 2.07031 162.273 2.07031C161.841 2.07031 161.456 2.15625 161.117 2.32812C160.779 2.49479 160.49 2.74479 160.25 3.07812C160.016 3.40625 159.836 3.8151 159.711 4.30469C159.586 4.78906 159.523 5.34896 159.523 5.98438V6.625C159.523 7.26042 159.586 7.82292 159.711 8.3125C159.836 8.80208 160.018 9.21615 160.258 9.55469C160.503 9.88802 160.794 10.1406 161.133 10.3125C161.471 10.4792 161.857 10.5625 162.289 10.5625C162.727 10.5625 163.115 10.4792 163.453 10.3125C163.792 10.1406 164.078 9.88802 164.312 9.55469C164.547 9.21615 164.724 8.80208 164.844 8.3125C164.969 7.82292 165.031 7.26042 165.031 6.625Z" fill="white"/>
</svg>
